<?xml version="1.0" encoding="utf-8"?>
<!-- Generator: Adobe Illustrator 22.0.1, SVG Export Plug-In . SVG Version: 6.00 Build 0)  -->
<svg version="1.1" id="Layer_1" xmlns="http://www.w3.org/2000/svg" xmlns:xlink="http://www.w3.org/1999/xlink" x="0px" y="0px"
	 viewBox="0 0 3000 2000" style="enable-background:new 0 0 3000 2000;" xml:space="preserve">
<style type="text/css">
	.st0{fill:#21145D;}
	.st1{fill:#4FE2C2;}
	.st2{fill:#358E79;}
</style>
<g>
	<ellipse transform="matrix(0.3162 -0.9487 0.9487 0.3162 -338.2259 973.3417)" class="st0" cx="506.1" cy="721.3" rx="9" ry="9"/>
	<circle class="st0" cx="737.3" cy="223.4" r="9"/>
	<circle class="st0" cx="330.6" cy="619" r="9"/>
	<circle class="st0" cx="223.8" cy="312.4" r="9"/>
	<g>
		<circle class="st1" cx="159.7" cy="314.5" r="3.6"/>
		<circle class="st1" cx="392.5" cy="551.7" r="3.6"/>
		<circle class="st1" cx="2261.3" cy="223.6" r="3.6"/>
		<circle class="st1" cx="890.8" cy="138.2" r="3.6"/>
		<circle class="st1" cx="445.9" cy="248.5" r="3.6"/>
		<circle class="st1" cx="1855.5" cy="67" r="3.6"/>
		<circle class="st1" cx="2503.4" cy="373.1" r="3.6"/>
		<circle class="st1" cx="1980.1" cy="266.3" r="3.6"/>
		<circle class="st1" cx="2624.4" cy="70.5" r="3.6"/>
		<circle class="st1" cx="702.2" cy="245" r="3.6"/>
		<circle class="st1" cx="538.4" cy="49.2" r="3.6"/>
		<circle class="st1" cx="107.7" cy="625.8" r="3.6"/>
		<circle class="st1" cx="2549.7" cy="551.7" r="3.6"/>
		<circle class="st1" cx="2895" cy="289.5" r="3.6"/>
		<circle class="st1" cx="2204.4" cy="38.4" r="3.6"/>
		<circle class="st1" cx="1197" cy="77.6" r="3.6"/>
		<circle class="st1" cx="267.9" cy="59.8" r="3.6"/>
		<circle class="st1" cx="2667.2" cy="223.5" r="3.6"/>
		<circle class="st1" cx="2916.4" cy="59.8" r="3.6"/>
		<circle class="st1" cx="2840.3" cy="451.5" r="3.6"/>
		<circle class="st1" cx="2607.5" cy="688.7" r="3.6"/>
		<circle class="st1" cx="2109.2" cy="275.2" r="3.6"/>
		<circle class="st1" cx="2554.1" cy="385.6" r="3.6"/>
		<circle class="st1" cx="496.6" cy="510.2" r="3.6"/>
		<circle class="st1" cx="375.6" cy="207.6" r="3.6"/>
		<circle class="st1" cx="2895.9" cy="107.9" r="3.6"/>
		<circle class="st1" cx="2297.8" cy="382" r="3.6"/>
		<circle class="st1" cx="2461.6" cy="186.2" r="3.6"/>
		<circle class="st1" cx="2892.3" cy="762.9" r="3.6"/>
		<circle class="st1" cx="450.3" cy="688.7" r="3.6"/>
		<circle class="st1" cx="105" cy="426.5" r="3.6"/>
		<circle class="st1" cx="795.6" cy="175.5" r="3.6"/>
		<circle class="st1" cx="2732.1" cy="196.8" r="3.6"/>
		<circle class="st1" cx="332.8" cy="360.6" r="3.6"/>
		<circle class="st1" cx="83.6" cy="196.8" r="3.6"/>
		<circle class="st1" cx="2022.8" cy="63.4" r="3.6"/>
		<circle class="st1" cx="1834.2" cy="170.2" r="3.6"/>
		<circle class="st1" cx="2407.3" cy="413.4" r="3.6"/>
	</g>
	<circle class="st2" cx="2543.7" cy="304.9" r="12.6"/>
	<path class="st2" d="M1313.7,6.9c4.9,0,9.2-2.8,11.3-6.9h-22.5C1304.6,4.1,1308.8,6.9,1313.7,6.9z"/>
	<path class="st2" d="M732.8,547.1"/>
	<path class="st2" d="M2223.9,435.1"/>
	<circle class="st2" cx="596.1" cy="392.4" r="12.6"/>
	<g>
		<circle class="st0" cx="424" cy="331.5" r="2.9"/>
		<circle class="st0" cx="610.9" cy="521.9" r="2.9"/>
		<circle class="st0" cx="2111.2" cy="258.5" r="2.9"/>
		<circle class="st0" cx="1010.9" cy="189.9" r="2.9"/>
		<circle class="st0" cx="653.7" cy="278.5" r="2.9"/>
		<circle class="st0" cx="2305.5" cy="378.5" r="2.9"/>
		<circle class="st0" cx="2402.7" cy="135.6" r="2.9"/>
		<circle class="st0" cx="859.5" cy="275.7" r="2.9"/>
		<circle class="st0" cx="728" cy="118.5" r="2.9"/>
		<circle class="st0" cx="382.2" cy="581.4" r="2.9"/>
		<circle class="st0" cx="2342.7" cy="521.9" r="2.9"/>
		<circle class="st0" cx="2619.9" cy="311.4" r="2.9"/>
		<circle class="st0" cx="2065.5" cy="109.9" r="2.9"/>
		<circle class="st0" cx="510.9" cy="127" r="2.9"/>
		<circle class="st0" cx="2437" cy="258.5" r="2.9"/>
		<circle class="st0" cx="2637.1" cy="127" r="2.9"/>
		<circle class="st0" cx="2576" cy="441.5" r="2.9"/>
		<circle class="st0" cx="2389.1" cy="631.9" r="2.9"/>
		<circle class="st0" cx="2346.3" cy="388.5" r="2.9"/>
		<circle class="st0" cx="694.5" cy="488.6" r="2.9"/>
		<circle class="st0" cx="597.3" cy="245.6" r="2.9"/>
		<circle class="st0" cx="2620.6" cy="165.6" r="2.9"/>
		<circle class="st0" cx="2272" cy="228.5" r="2.9"/>
		<circle class="st0" cx="2617.8" cy="691.5" r="2.9"/>
		<circle class="st0" cx="657.3" cy="631.9" r="2.9"/>
		<circle class="st0" cx="380.1" cy="421.4" r="2.9"/>
		<circle class="st0" cx="934.5" cy="219.9" r="2.9"/>
		<circle class="st0" cx="2489.1" cy="237" r="2.9"/>
		<circle class="st0" cx="563" cy="368.5" r="2.9"/>
		<circle class="st0" cx="362.9" cy="237" r="2.9"/>
		<circle class="st0" cx="1919.7" cy="129.9" r="2.9"/>
		<circle class="st0" cx="2228.4" cy="410.9" r="2.9"/>
	</g>
	<g>
		<ellipse class="st0" cx="495.1" cy="1942.3" rx="9" ry="9"/>
		<circle class="st0" cx="1135.3" cy="1933.4" r="9"/>
		<circle class="st0" cx="726.3" cy="1444.4" r="9"/>
		<circle class="st0" cx="319.6" cy="1840" r="9"/>
		<circle class="st0" cx="212.8" cy="1533.4" r="9"/>
		<g>
			<circle class="st1" cx="148.7" cy="1535.5" r="3.6"/>
			<circle class="st1" cx="381.5" cy="1772.7" r="3.6"/>
			<circle class="st1" cx="2250.3" cy="1444.6" r="3.6"/>
			<circle class="st1" cx="2221.9" cy="1776.3" r="3.6"/>
			<circle class="st1" cx="434.9" cy="1469.5" r="3.6"/>
			<circle class="st1" cx="862" cy="1736.5" r="3.6"/>
			<circle class="st1" cx="2492.4" cy="1594.1" r="3.6"/>
			<circle class="st1" cx="2613.4" cy="1291.5" r="3.6"/>
			<circle class="st1" cx="691.2" cy="1466" r="3.6"/>
			<circle class="st1" cx="527.4" cy="1270.2" r="3.6"/>
			<circle class="st1" cx="96.7" cy="1846.8" r="3.6"/>
			<circle class="st1" cx="2538.7" cy="1772.7" r="3.6"/>
			<circle class="st1" cx="2884" cy="1510.5" r="3.6"/>
			<circle class="st1" cx="256.9" cy="1280.8" r="3.6"/>
			<circle class="st1" cx="2656.2" cy="1444.5" r="3.6"/>
			<circle class="st1" cx="2905.4" cy="1280.8" r="3.6"/>
			<circle class="st1" cx="2829.3" cy="1672.5" r="3.6"/>
			<circle class="st1" cx="2596.5" cy="1909.7" r="3.6"/>
			<circle class="st1" cx="727.7" cy="1581.6" r="3.6"/>
			<circle class="st1" cx="756.1" cy="1913.3" r="3.6"/>
			<circle class="st1" cx="2543.1" cy="1606.6" r="3.6"/>
			<circle class="st1" cx="2116" cy="1873.5" r="3.6"/>
			<circle class="st1" cx="485.6" cy="1731.2" r="3.6"/>
			<circle class="st1" cx="364.6" cy="1428.6" r="3.6"/>
			<circle class="st1" cx="2884.9" cy="1328.9" r="3.6"/>
			<circle class="st1" cx="2286.8" cy="1603" r="3.6"/>
			<circle class="st1" cx="2450.6" cy="1407.2" r="3.6"/>
			<circle class="st1" cx="2881.3" cy="1983.9" r="3.6"/>
			<circle class="st1" cx="439.3" cy="1909.7" r="3.6"/>
			<circle class="st1" cx="94" cy="1647.5" r="3.6"/>
			<circle class="st1" cx="784.6" cy="1396.5" r="3.6"/>
			<circle class="st1" cx="2721.1" cy="1417.8" r="3.6"/>
			<circle class="st1" cx="321.8" cy="1581.6" r="3.6"/>
			<circle class="st1" cx="72.6" cy="1417.8" r="3.6"/>
			<circle class="st1" cx="1741.3" cy="1850.4" r="3.6"/>
			<circle class="st1" cx="1118.4" cy="1772" r="3.6"/>
			<circle class="st1" cx="2396.3" cy="1634.4" r="3.6"/>
			<circle class="st1" cx="1951.3" cy="1744.8" r="3.6"/>
			<circle class="st1" cx="2207.6" cy="1741.2" r="3.6"/>
		</g>
		<circle class="st2" cx="2532.7" cy="1525.9" r="12.6"/>
		<circle class="st2" cx="979.7" cy="1911" r="12.6"/>
		<circle class="st2" cx="1874.2" cy="1898.6" r="12.6"/>
		<circle class="st2" cx="734.4" cy="1768.1" r="12.6"/>
		<path class="st2" d="M2212.9,1656.1"/>
		<circle class="st2" cx="585.1" cy="1613.4" r="12.6"/>
		<g>
			<circle class="st0" cx="413" cy="1552.5" r="2.9"/>
			<circle class="st0" cx="599.9" cy="1742.9" r="2.9"/>
			<circle class="st0" cx="2077.3" cy="1745.8" r="2.9"/>
			<circle class="st0" cx="642.7" cy="1499.5" r="2.9"/>
			<circle class="st0" cx="985.7" cy="1713.9" r="2.9"/>
			<circle class="st0" cx="2294.5" cy="1599.5" r="2.9"/>
			<circle class="st0" cx="2391.7" cy="1356.6" r="2.9"/>
			<circle class="st0" cx="717" cy="1339.5" r="2.9"/>
			<circle class="st0" cx="371.2" cy="1802.4" r="2.9"/>
			<circle class="st0" cx="2331.7" cy="1742.9" r="2.9"/>
			<circle class="st0" cx="2608.9" cy="1532.4" r="2.9"/>
			<circle class="st0" cx="499.9" cy="1348" r="2.9"/>
			<circle class="st0" cx="2426" cy="1479.5" r="2.9"/>
			<circle class="st0" cx="2626.1" cy="1348" r="2.9"/>
			<circle class="st0" cx="2565" cy="1662.5" r="2.9"/>
			<circle class="st0" cx="2378.1" cy="1852.9" r="2.9"/>
			<circle class="st0" cx="900.7" cy="1855.8" r="2.9"/>
			<circle class="st0" cx="2335.3" cy="1609.5" r="2.9"/>
			<circle class="st0" cx="1992.3" cy="1823.9" r="2.9"/>
			<circle class="st0" cx="683.5" cy="1709.6" r="2.9"/>
			<circle class="st0" cx="586.3" cy="1466.6" r="2.9"/>
			<circle class="st0" cx="2609.6" cy="1386.6" r="2.9"/>
			<circle class="st0" cx="2261" cy="1449.5" r="2.9"/>
			<circle class="st0" cx="2606.8" cy="1912.5" r="2.9"/>
			<circle class="st0" cx="646.3" cy="1852.9" r="2.9"/>
			<circle class="st0" cx="369.1" cy="1642.4" r="2.9"/>
			<circle class="st0" cx="2478.1" cy="1458" r="2.9"/>
			<circle class="st0" cx="552" cy="1589.5" r="2.9"/>
			<circle class="st0" cx="351.9" cy="1458" r="2.9"/>
			<circle class="st0" cx="2217.4" cy="1631.9" r="2.9"/>
			<circle class="st0" cx="2065.9" cy="1717.7" r="2.9"/>
		</g>
	</g>
	<g>
		<ellipse class="st0" cx="2493" cy="736.2" rx="9" ry="9"/>
		<circle class="st0" cx="2668.4" cy="838.5" r="9"/>
		<circle class="st0" cx="2775.2" cy="1145.1" r="9"/>
		<g>
			<circle class="st1" cx="2839.3" cy="1143" r="3.6"/>
			<circle class="st1" cx="2606.5" cy="905.8" r="3.6"/>
			<circle class="st1" cx="737.7" cy="1233.9" r="3.6"/>
			<circle class="st1" cx="2553.1" cy="1209" r="3.6"/>
			<circle class="st1" cx="495.6" cy="1084.4" r="3.6"/>
			<circle class="st1" cx="374.6" cy="1387" r="3.6"/>
			<circle class="st1" cx="2460.6" cy="1408.3" r="3.6"/>
			<circle class="st1" cx="2891.3" cy="831.7" r="3.6"/>
			<circle class="st1" cx="449.3" cy="905.8" r="3.6"/>
			<circle class="st1" cx="104" cy="1168" r="3.6"/>
			<circle class="st1" cx="794.6" cy="1419.1" r="3.6"/>
			<circle class="st1" cx="2731.1" cy="1397.7" r="3.6"/>
			<circle class="st1" cx="331.8" cy="1234" r="3.6"/>
			<circle class="st1" cx="82.6" cy="1397.7" r="3.6"/>
			<circle class="st1" cx="158.7" cy="1006" r="3.6"/>
			<circle class="st1" cx="391.5" cy="768.8" r="3.6"/>
			<circle class="st1" cx="444.9" cy="1071.9" r="3.6"/>
			<circle class="st1" cx="2502.4" cy="947.3" r="3.6"/>
			<circle class="st1" cx="2623.4" cy="1249.9" r="3.6"/>
			<circle class="st1" cx="103.1" cy="1349.6" r="3.6"/>
			<circle class="st1" cx="537.4" cy="1271.3" r="3.6"/>
			<circle class="st1" cx="106.7" cy="694.6" r="3.6"/>
			<circle class="st1" cx="2548.7" cy="768.8" r="3.6"/>
			<circle class="st1" cx="2894" cy="1031" r="3.6"/>
			<circle class="st1" cx="266.9" cy="1260.7" r="3.6"/>
			<circle class="st1" cx="2666.2" cy="1096.9" r="3.6"/>
			<circle class="st1" cx="2915.4" cy="1260.7" r="3.6"/>
			<circle class="st1" cx="591.7" cy="1044.1" r="3.6"/>
		</g>
		<circle class="st2" cx="455.3" cy="1152.6" r="12.6"/>
		<g>
			<circle class="st0" cx="2575" cy="1126" r="2.9"/>
			<circle class="st0" cx="596.3" cy="1321.9" r="2.9"/>
			<circle class="st0" cx="2271" cy="1339" r="2.9"/>
			<circle class="st0" cx="2616.8" cy="876.1" r="2.9"/>
			<circle class="st0" cx="656.3" cy="935.6" r="2.9"/>
			<circle class="st0" cx="379.1" cy="1146.1" r="2.9"/>
			<circle class="st0" cx="2488.1" cy="1330.5" r="2.9"/>
			<circle class="st0" cx="562" cy="1199" r="2.9"/>
			<circle class="st0" cx="361.9" cy="1330.5" r="2.9"/>
			<circle class="st0" cx="423" cy="1016" r="2.9"/>
			<circle class="st0" cx="609.9" cy="825.6" r="2.9"/>
			<circle class="st0" cx="652.7" cy="1069" r="2.9"/>
			<circle class="st0" cx="2401.7" cy="1211.9" r="2.9"/>
			<circle class="st0" cx="378.4" cy="1291.9" r="2.9"/>
			<circle class="st0" cx="727" cy="1229" r="2.9"/>
			<circle class="st0" cx="381.2" cy="766" r="2.9"/>
			<circle class="st0" cx="2341.7" cy="825.6" r="2.9"/>
			<circle class="st0" cx="2618.9" cy="1036.1" r="2.9"/>
			<circle class="st0" cx="509.9" cy="1220.5" r="2.9"/>
			<circle class="st0" cx="2436" cy="1089" r="2.9"/>
			<circle class="st0" cx="2636.1" cy="1220.5" r="2.9"/>
		</g>
	</g>
</g>
</svg>
